<?xml version="1.0" encoding="UTF-8"?>
<svg width="53px" height="53px" viewBox="0 0 53 53" version="1.1" xmlns="http://www.w3.org/2000/svg" xmlns:xlink="http://www.w3.org/1999/xlink">
    <title>画板</title>
    <g id="画板" stroke="none" stroke-width="1" fill="none" fill-rule="evenodd">
        <path d="M25.5693177,40.2392886 L14.5106351,46.0531821 C13.5329459,46.5671837 12.3236916,46.1912907 11.80969,45.2136015 C11.6050119,44.8242806 11.5343825,44.3783444 11.6087362,43.9448292 L13.7207567,31.6308051 C13.8320325,30.982017 13.6169356,30.3200166 13.1455634,29.8605423 L4.19890122,21.139702 C3.40793406,20.3686996 3.39174945,19.102473 4.16275188,18.3115059 C4.46976908,17.9965386 4.87205391,17.7915642 5.30732797,17.7283152 L17.671311,15.9317233 C18.3227313,15.8370664 18.8858625,15.4279277 19.1771865,14.8376407 L24.7065278,3.6339715 C25.1953724,2.64346418 26.3946241,2.23678618 27.3851314,2.72563077 C27.7795566,2.92029125 28.0988117,3.23954629 28.2934722,3.6339715 L33.8228135,14.8376407 C34.1141375,15.4279277 34.6772687,15.8370664 35.328689,15.9317233 L47.692672,17.7283152 C48.7857618,17.8871505 49.5431247,18.9020362 49.3842894,19.9951259 C49.3210404,20.4303999 49.1160661,20.8326848 48.8010988,21.139702 L39.8544366,29.8605423 C39.3830644,30.3200166 39.1679675,30.982017 39.2792433,31.6308051 L41.3912638,43.9448292 C41.5779858,45.0335021 40.8468101,46.0674139 39.7581373,46.2541359 C39.324622,46.3284896 38.8786858,46.2578603 38.4893649,46.0531821 L27.4306823,40.2392886 C26.8480342,39.9329724 26.1519658,39.9329724 25.5693177,40.2392886 Z" id="星形" fill="#FFB800"></path>
    </g>
</svg>