<svg data-v-a8958c90="" width="14" height="14" viewBox="0 0 14 14" fill="none" xmlns="http://www.w3.org/2000/svg" class="liked-icon"><path data-v-a8958c90="" fill-rule="evenodd" clip-rule="evenodd" d="M9.45205 1.60729C9.13229 0.772086 8.70208 0.282772 8.17063 0.124374C7.64564 -0.0320981 7.20308 0.188912 6.98278 0.343248C6.55169 0.64525 6.33837 1.11908 6.20071 1.5012C6.14817 1.64704 6.10002 1.80016 6.05661 1.93823L6.05661 1.93824L6.05657 1.93835L6.05648 1.93865C6.04212 1.98432 6.02828 2.02834 6.01496 2.0699C5.95791 2.24804 5.90763 2.39115 5.85248 2.50643C5.45683 3.3334 5.1121 3.8271 4.80935 4.14611C4.51322 4.45815 4.23983 4.6219 3.9473 4.76821C3.71095 4.88641 3.55494 5.12906 3.55491 5.40159L3.55388 12.9125C3.55383 13.3026 3.87002 13.6188 4.26008 13.6188H10.8706C11.2097 13.6188 11.4663 13.5113 11.6519 13.3535C11.7388 13.2797 11.7988 13.2043 11.8387 13.1484C11.8556 13.1248 11.8704 13.1025 11.8786 13.09L11.8813 13.0859L11.8826 13.0839L11.8955 13.0685L11.9142 13.0382C12.5304 12.0414 12.9578 11.247 13.2927 10.2945C13.6745 9.20895 13.8679 8.26811 13.9499 7.5347C14.0297 6.82084 14.009 6.25845 13.9246 5.95014C13.805 5.51285 13.5104 5.26112 13.2134 5.13284C12.9385 5.01407 12.661 4.99859 12.5028 4.99836L9.49071 4.95631C9.92962 3.15791 9.64796 2.11902 9.45205 1.60729ZM0.000800636 5.46783C-0.0181914 5.0652 0.303128 4.72836 0.706212 4.72836H1.75264C2.14266 4.72836 2.45883 5.04454 2.45883 5.43456V12.9442C2.45883 13.3342 2.14266 13.6504 1.75264 13.6504H1.06044C0.68335 13.6504 0.372791 13.3541 0.355024 12.9775L0.000800636 5.46783Z" fill="#1E80FF"></path></svg>